<svg width="31" height="28" viewBox="0 0 31 28" fill="none" xmlns="http://www.w3.org/2000/svg">
<path d="M5.40499 27.3334H26.1394C27.3177 27.3334 28.4478 26.9119 29.2811 26.1618C30.1143 25.4116 30.5824 24.3942 30.5824 23.3334V10C30.5824 8.93915 30.1143 7.92174 29.2811 7.17159C28.4478 6.42145 27.3177 6.00002 26.1394 6.00002H23.1773V3.33335C23.1773 2.62611 22.8652 1.94783 22.3097 1.44774C21.7542 0.947638 21.0008 0.666687 20.2152 0.666687H11.3291C10.5435 0.666687 9.7901 0.947638 9.23461 1.44774C8.67911 1.94783 8.36704 2.62611 8.36704 3.33335V6.00002H5.40499C4.22661 6.00002 3.0965 6.42145 2.26326 7.17159C1.43002 7.92174 0.961914 8.93915 0.961914 10V23.3334C0.961914 24.3942 1.43002 25.4116 2.26326 26.1618C3.0965 26.9119 4.22661 27.3334 5.40499 27.3334ZM11.3291 3.33335H20.2152V6.00002H11.3291V3.33335ZM3.92397 10C3.92397 9.6464 4.08 9.30726 4.35775 9.05721C4.63549 8.80716 5.0122 8.66669 5.40499 8.66669H26.1394C26.5321 8.66669 26.9088 8.80716 27.1866 9.05721C27.4643 9.30726 27.6204 9.6464 27.6204 10V23.3334C27.6204 23.687 27.4643 24.0261 27.1866 24.2762C26.9088 24.5262 26.5321 24.6667 26.1394 24.6667H5.40499C5.0122 24.6667 4.63549 24.5262 4.35775 24.2762C4.08 24.0261 3.92397 23.687 3.92397 23.3334V10Z" fill="#1F41BB"/>
</svg>
