<svg width="35" height="31" viewBox="0 0 35 31" fill="none" xmlns="http://www.w3.org/2000/svg">
<path d="M12.195 29.7084C13.9169 29.7176 15.6238 29.4191 17.2166 28.83C18.8077 29.4241 20.5157 29.7228 22.2382 29.7084C27.4678 29.7084 31.564 27.1961 31.564 23.9876V18.6375C31.564 15.429 27.4678 12.9167 22.2382 12.9167C21.9957 12.9167 21.7575 12.927 21.5208 12.9387V6.88848C21.5208 3.74586 17.4246 1.29169 12.195 1.29169C6.96533 1.29169 2.86914 3.74586 2.86914 6.88848V24.1116C2.86914 27.2542 6.96533 29.7084 12.195 29.7084ZM28.6945 23.9876C28.6945 25.4717 26.0431 27.125 22.2382 27.125C18.4332 27.125 15.7818 25.4717 15.7818 23.9876V22.7928C17.7248 23.8566 19.9646 24.3993 22.2382 24.357C24.5118 24.3993 26.7516 23.8566 28.6945 22.7928V23.9876ZM22.2382 15.5C26.0431 15.5 28.6945 17.1534 28.6945 18.6375C28.6945 20.1216 26.0431 21.7737 22.2382 21.7737C18.4332 21.7737 15.7818 20.1203 15.7818 18.6375C15.7818 17.1547 18.4332 15.5 22.2382 15.5ZM12.195 3.87502C15.9999 3.87502 18.6513 5.46378 18.6513 6.88848C18.6513 8.31319 15.9999 9.90324 12.195 9.90324C8.39003 9.90324 5.73863 8.31449 5.73863 6.88848C5.73863 5.46248 8.39003 3.87502 12.195 3.87502ZM5.73863 10.9559C7.68968 11.9991 9.9263 12.5293 12.195 12.4866C14.4637 12.5293 16.7003 11.9991 18.6513 10.9559V13.3429C17.0877 13.6978 15.6537 14.4132 14.4906 15.4187C13.7362 15.5656 12.9668 15.6409 12.195 15.6434C8.39003 15.6434 5.73863 14.0547 5.73863 12.6299V10.9559ZM5.73863 16.6974C7.6901 17.7395 9.92652 18.2693 12.195 18.2267C12.4504 18.2267 12.6971 18.1983 12.9482 18.1867C12.9268 18.3362 12.9149 18.4867 12.9123 18.6375V21.3306C12.6713 21.3435 12.4389 21.3849 12.195 21.3849C8.39003 21.3849 5.73863 19.7961 5.73863 18.3701V16.6974ZM5.73863 22.4376C7.68968 23.4807 9.9263 24.011 12.195 23.9682C12.436 23.9682 12.6727 23.9514 12.9123 23.9411V23.9876C12.9329 25.0871 13.4022 26.1414 14.2309 26.9494C13.5596 27.0635 12.8781 27.1223 12.195 27.125C8.39003 27.125 5.73863 25.5363 5.73863 24.1116V22.4376Z" fill="#1F41BB"/>
</svg>
