<svg width="98" height="88" viewBox="0 0 98 88" fill="none" xmlns="http://www.w3.org/2000/svg">
<rect width="97.7477" height="88" rx="8" fill="#207FEE"/>
<path d="M72.0984 22.6842C75.178 25.4567 77.6209 28.7481 79.2875 32.3706C80.9542 35.993 81.812 39.8755 81.812 43.7964C81.812 47.7173 80.9542 51.5998 79.2875 55.2222C77.6209 58.8447 75.178 62.1361 72.0984 64.9086C69.0188 67.6811 65.3628 69.8803 61.3391 71.3808C57.3154 72.8813 53.0028 73.6535 48.6476 73.6535C44.2924 73.6535 39.9799 72.8813 35.9562 71.3808C31.9325 69.8803 28.2765 67.6811 25.1969 64.9086L36.9222 54.3525C38.462 55.7387 40.2901 56.8384 42.3019 57.5886C44.3137 58.3388 46.47 58.725 48.6476 58.725C50.8252 58.725 52.9815 58.3388 54.9934 57.5886C57.0052 56.8384 58.8332 55.7387 60.373 54.3525C61.9128 52.9662 63.1343 51.3205 63.9676 49.5093C64.8009 47.6981 65.2298 45.7568 65.2298 43.7964C65.2298 41.8359 64.8009 39.8947 63.9676 38.0835C63.1343 36.2723 61.9128 34.6265 60.373 33.2403L72.0984 22.6842Z" fill="white"/>
<path d="M25.1967 64.9083C18.9772 59.309 15.4831 51.7148 15.4831 43.7962C15.4831 35.8776 18.9772 28.2833 25.1967 22.684C31.4162 17.0847 39.8517 13.939 48.6474 13.939C57.4432 13.939 65.8787 17.0847 72.0982 22.684L60.3728 33.2401C57.2631 30.4404 53.0453 28.8676 48.6475 28.8676C44.2496 28.8676 40.0318 30.4404 36.9221 33.2401C33.8123 36.0397 32.0653 39.8369 32.0653 43.7962C32.0653 47.7555 33.8123 51.5526 36.9221 54.3523L25.1967 64.9083Z" fill="#9BC9FF"/>
</svg>
