<svg width="24" height="24" viewBox="0 0 24 24" fill="none" xmlns="http://www.w3.org/2000/svg">
<path d="M5.41996 14.4656L4.59721 17.537L1.59008 17.6006C0.691392 15.9338 0.181641 14.0266 0.181641 12C0.181641 10.0403 0.658246 8.1922 1.50306 6.56494H1.50371L4.1809 7.05576L5.35366 9.71689C5.10821 10.4325 4.97442 11.2007 4.97442 12C4.97451 12.8675 5.13166 13.6987 5.41996 14.4656Z" fill="#FBBB00"/>
<path d="M23.6116 9.79211C23.7474 10.507 23.8181 11.2453 23.8181 11.9999C23.8181 12.846 23.7292 13.6713 23.5597 14.4675C22.9844 17.1765 21.4811 19.5421 19.3987 21.2161L19.398 21.2155L16.026 21.0434L15.5487 18.0642C16.9305 17.2538 18.0104 15.9856 18.5793 14.4675H12.2598V9.79211H18.6715H23.6116Z" fill="#518EF8"/>
<path d="M19.3976 21.2156L19.3983 21.2162C17.373 22.8441 14.8002 23.8181 11.9996 23.8181C7.49893 23.8181 3.58596 21.3026 1.58984 17.6006L5.41972 14.4656C6.41775 17.1292 8.98724 19.0253 11.9996 19.0253C13.2944 19.0253 14.5074 18.6753 15.5483 18.0643L19.3976 21.2156Z" fill="#28B446"/>
<path d="M19.5432 2.90253L15.7146 6.03693C14.6374 5.36357 13.364 4.97459 11.9997 4.97459C8.91916 4.97459 6.30162 6.95769 5.35358 9.71682L1.50358 6.56487H1.50293C3.46983 2.77267 7.43215 0.181763 11.9997 0.181763C14.8672 0.181763 17.4964 1.2032 19.5432 2.90253Z" fill="#F14336"/>
</svg>
