<svg width="54" height="56" viewBox="0 0 54 56" fill="none" xmlns="http://www.w3.org/2000/svg">
<path d="M19.1575 39.6996L23.6685 48.4845L19.1575 55.3247H8.20996C8.20996 42.4438 17.521 39.6996 17.521 39.6996H19.1575Z" fill="#FFA875"/>
<path d="M45.9977 55.3247H35.0514L31.874 49.0394L35.0514 39.6996H36.7767C36.7767 39.6996 45.9977 42.4438 45.9977 55.3247Z" fill="#FFA875"/>
<path d="M19.1582 39.6996H35.0516V55.3247H19.1582V39.6996Z" fill="#81DDFD"/>
<path d="M2.11914 22.959C2.11914 10.2993 13.3275 0 27.1042 0C40.881 0 52.0893 10.2993 52.0893 22.959H2.11914Z" fill="#827F98"/>
<path d="M6.48145 22.959H2.11892C2.11892 25.4621 1.61789 27.4501 1.08281 28.8594C0.374617 30.7248 1.15198 32.7943 2.97091 33.8479C5.03478 35.0435 8.15283 36.2146 12.4485 36.2146L6.48145 22.959Z" fill="#77718C"/>
<path d="M47.7268 22.959H52.0893C52.0893 25.4621 52.5904 27.4501 53.1255 28.8594C53.8336 30.7248 53.0563 32.7943 51.2374 33.8479C49.1735 35.0435 46.0554 36.2146 41.7598 36.2146L47.7268 22.959Z" fill="#827F98"/>
<path d="M11.2373 22.0245C11.2373 13.0653 16.0159 5.13276 23.3577 0.258179C11.3518 1.92426 2.11914 11.4693 2.11914 22.9589H11.2568C11.2453 22.6485 11.2373 22.3374 11.2373 22.0245Z" fill="#77718C"/>
<path d="M47.9755 27.6765C50.6732 27.6765 52.8601 25.667 52.8601 23.188C52.8601 20.7091 50.6732 18.6995 47.9755 18.6995C45.2777 18.6995 43.0908 20.7091 43.0908 23.188C43.0908 25.667 45.2777 27.6765 47.9755 27.6765Z" fill="#FFCABD"/>
<path d="M19.1582 39.6996V42.8367C19.1582 44.8531 20.937 46.4876 23.1313 46.4876C25.3256 46.4876 27.1043 44.853 27.1043 42.8367V39.6996H19.1582Z" fill="white"/>
<path d="M35.0506 39.6996V42.8367C35.0506 44.8531 33.2718 46.4876 31.0776 46.4876C28.8832 46.4876 27.1045 44.853 27.1045 42.8367V39.6996H35.0506Z" fill="white"/>
<path d="M19.4388 40.247L19.1576 39.6996H17.521C17.521 39.6996 8.20996 42.4439 8.20996 55.3247H10.2032C10.8823 49.1764 14.3564 43.7881 19.4388 40.247Z" fill="#FF995D"/>
<path d="M47.2695 18.9769C46.8552 17.1991 45.0407 16.005 43.0769 16.227C29.8798 17.7194 21.2821 13.448 16.7535 10.1175C15.1676 8.95122 12.8558 9.13389 11.5243 10.5434C8.38299 13.8688 6.48145 18.2096 6.48145 22.9587C6.48145 33.4149 15.969 42.0285 27.3471 41.9077C38.6246 41.7879 47.7264 33.3501 47.7264 22.9588C47.7264 21.5929 47.5687 20.2608 47.2695 18.9769Z" fill="#FFDCCE"/>
<path d="M19.1897 40.4299C14.2598 35.6249 11.2371 29.1493 11.2371 22.0245C11.2371 17.4455 12.4863 13.1353 14.6867 9.36358C13.5263 9.27698 12.3411 9.67905 11.5245 10.5435C9.33908 12.8569 7.7548 15.662 6.99222 18.7539C6.74448 18.7184 6.49081 18.6995 6.2323 18.6995C3.53461 18.6995 1.34766 20.7092 1.34766 23.1881C1.34766 25.667 3.53461 27.6766 6.2323 27.6766C6.53576 27.6766 6.83219 27.6499 7.12026 27.6012C8.73774 33.3798 13.2911 38.1369 19.1897 40.4299Z" fill="#FFCABD"/>
<path d="M14.8961 30.0695C17.3839 30.0695 19.4006 28.5937 19.4006 26.7731C19.4006 24.9526 17.3839 23.4768 14.8961 23.4768C12.4083 23.4768 10.3916 24.9526 10.3916 26.7731C10.3916 28.5937 12.4083 30.0695 14.8961 30.0695Z" fill="#FFA0AB"/>
<path d="M39.3121 30.0695C41.7999 30.0695 43.8166 28.5937 43.8166 26.7731C43.8166 24.9526 41.7999 23.4768 39.3121 23.4768C36.8244 23.4768 34.8076 24.9526 34.8076 26.7731C34.8076 28.5937 36.8244 30.0695 39.3121 30.0695Z" fill="#FFA0AB"/>
<path d="M17.5209 24.4349C17.0191 24.4349 16.6123 24.0611 16.6123 23.6V21.9079C16.6123 21.4468 17.0191 21.073 17.5209 21.073C18.0226 21.073 18.4294 21.4468 18.4294 21.9079V23.6C18.4294 24.0611 18.0226 24.4349 17.5209 24.4349Z" fill="#423E4F"/>
<path d="M36.6869 24.4349C36.185 24.4349 35.7783 24.0611 35.7783 23.6V21.9079C35.7783 21.4468 36.185 21.073 36.6869 21.073C37.1888 21.073 37.5954 21.4468 37.5954 21.9079V23.6C37.5954 24.0611 37.1888 24.4349 36.6869 24.4349Z" fill="#423E4F"/>
<path d="M27.104 25.4423C25.8731 25.4423 24.7025 24.9524 23.8926 24.0982C23.5628 23.7506 23.6023 23.2233 23.9808 22.9203C24.359 22.6174 24.9329 22.6536 25.2626 23.0012C25.7274 23.4913 26.3985 23.7724 27.104 23.7724C27.8094 23.7724 28.4805 23.4912 28.9455 23.0011C29.2753 22.6535 29.8491 22.6173 30.2274 22.9203C30.6057 23.2232 30.6451 23.7506 30.3155 24.0982C29.5053 24.9524 28.3348 25.4423 27.104 25.4423Z" fill="#423E4F"/>
<path d="M12.7871 55.3246V49.8743C12.7871 49.4132 13.1939 49.0394 13.6957 49.0394C14.1974 49.0394 14.6042 49.4132 14.6042 49.8743V55.3246H12.7871Z" fill="#FF995D"/>
<path d="M39.6035 55.3246V49.8743C39.6035 49.4132 40.0102 49.0394 40.5121 49.0394C41.0139 49.0394 41.4206 49.4132 41.4206 49.8743V55.3246H39.6035Z" fill="#FF995D"/>
<path d="M27.1038 49.6225C27.5894 49.6225 27.9831 49.2607 27.9831 48.8145C27.9831 48.3683 27.5894 48.0066 27.1038 48.0066C26.6183 48.0066 26.2246 48.3683 26.2246 48.8145C26.2246 49.2607 26.6183 49.6225 27.1038 49.6225Z" fill="white"/>
<path d="M27.1038 52.9674C27.5894 52.9674 27.9831 52.6057 27.9831 52.1595C27.9831 51.7133 27.5894 51.3516 27.1038 51.3516C26.6183 51.3516 26.2246 51.7133 26.2246 52.1595C26.2246 52.6057 26.6183 52.9674 27.1038 52.9674Z" fill="white"/>
</svg>
