<svg width="71" height="74" viewBox="0 0 71 74" fill="none" xmlns="http://www.w3.org/2000/svg">
<circle cx="35.5" cy="39.5" r="22.5" fill="#4DDC81"/>
<g clip-path="url(#clip0_326_3746)">
<path d="M29.4841 48.956L28.7527 51.184H43.2464L42.5151 48.956H29.4841ZM31.7578 50.7714H29.3774L29.8379 49.3686H33.1606L31.7578 50.7714ZM35.9584 35.5057C32.7682 35.5057 30.1821 38.0918 30.1821 41.2819V48.3784H41.8171V41.2819C41.8171 38.0918 39.2311 35.5057 36.0409 35.5057H35.9584V35.5057ZM40.7031 41.447C40.7031 41.7204 40.4814 41.942 40.208 41.942C39.9346 41.942 39.7129 41.7203 39.7129 41.447C39.7129 39.445 38.0841 37.8162 36.0821 37.8162H35.9996C35.7262 37.8162 35.5045 37.5945 35.5045 37.3211C35.5045 37.0477 35.7262 36.826 35.9996 36.826H36.0821C38.6301 36.826 40.7031 38.8989 40.7031 41.447ZM29.2527 38.9654C29.3549 38.4557 29.0248 37.9597 28.5152 37.8574L25.7914 37.3108C25.2818 37.2086 24.7859 37.5388 24.6836 38.0483C24.6619 38.1559 24.6592 38.2665 24.6756 38.375C24.7334 38.755 25.0224 39.0761 25.421 39.1561L28.1448 39.7027C28.6544 39.805 29.1504 39.4749 29.2527 38.9654ZM28.628 32.6542L30.3632 34.8238C30.6878 35.2296 31.28 35.2955 31.6859 34.9709C32.0918 34.6463 32.1575 34.0541 31.8331 33.6482L30.0979 31.4787C29.7733 31.0728 29.1811 31.0069 28.7752 31.3315C28.5029 31.5493 28.3837 31.8874 28.4326 32.2089C28.4574 32.372 28.5248 32.5256 28.628 32.6542ZM36.1173 33.4751C36.6369 33.4873 37.068 33.076 37.0803 32.5564L37.0736 29.7792C37.0859 29.2598 36.6746 28.8284 36.155 28.8162C35.6354 28.8041 35.2042 29.2154 35.192 29.7349L35.1987 32.5121C35.1973 32.5673 35.2008 32.6225 35.2092 32.677C35.2766 33.12 35.6539 33.4642 36.1173 33.4751ZM40.4735 35.1777C40.8637 35.521 41.4583 35.4832 41.8017 35.093L43.637 33.0075C43.9803 32.6173 43.9423 32.0227 43.5522 31.6793C43.1621 31.336 42.5674 31.3739 42.224 31.7641L40.3888 33.8496C40.1974 34.0669 40.1245 34.3478 40.1649 34.6133C40.198 34.832 40.3073 35.0319 40.4735 35.1777ZM47.3233 38.581C47.2451 38.0672 46.7652 37.7141 46.2513 37.7923L43.505 38.2102C42.9911 38.2884 42.6379 38.7683 42.7161 39.2821C42.7944 39.796 43.2743 40.1491 43.7881 40.0709L46.5345 39.6531C47.0483 39.5748 47.4015 39.0949 47.3233 38.581Z" fill="white"/>
</g>
<circle cx="18" cy="5" r="5" fill="#4DDC81"/>
<circle cx="67" cy="28" r="4" fill="#4DDC81"/>
<circle cx="45" cy="7" r="2" fill="#4DDC81"/>
<circle cx="61" cy="47" r="2" fill="#4DDC81"/>
<circle cx="2" cy="34" r="2" fill="#4DDC81"/>
<circle cx="13" cy="60" r="2" fill="#4DDC81"/>
<circle cx="41" cy="72" r="2" fill="#4DDC81"/>
<defs>
<clipPath id="clip0_326_3746">
<rect width="24" height="24" fill="white" transform="translate(24 28)"/>
</clipPath>
</defs>
</svg>
