<svg width="71" height="74" viewBox="0 0 71 74" fill="none" xmlns="http://www.w3.org/2000/svg">
<circle cx="35.5" cy="39.5" r="22.5" fill="#FF5973"/>
<g clip-path="url(#clip0_315_2309)">
<path d="M42 37C43.6569 37 45 35.6569 45 34C45 32.3431 43.6569 31 42 31C40.3431 31 39 32.3431 39 34C39 35.6569 40.3431 37 42 37Z" fill="white"/>
<path d="M37 34C37.0026 33.6643 37.0361 33.3296 37.1 33H29C28.4696 33 27.9609 33.2107 27.5858 33.5858C27.2107 33.9609 27 34.4696 27 35V47C27 47.5304 27.2107 48.0391 27.5858 48.4142C27.9609 48.7893 28.4696 49 29 49H41C41.5304 49 42.0391 48.7893 42.4142 48.4142C42.7893 48.0391 43 47.5304 43 47V38.9C42.6704 38.9639 42.3357 38.9974 42 39C40.6739 39 39.4021 38.4732 38.4645 37.5355C37.5268 36.5979 37 35.3261 37 34Z" fill="white"/>
</g>
<circle cx="18" cy="5" r="5" fill="#FF5973"/>
<circle cx="67" cy="28" r="4" fill="#FF5973"/>
<circle cx="45" cy="7" r="2" fill="#FF5973"/>
<circle cx="61" cy="47" r="2" fill="#FF5973"/>
<circle cx="2" cy="34" r="2" fill="#FF5973"/>
<circle cx="13" cy="60" r="2" fill="#FF5973"/>
<circle cx="41" cy="72" r="2" fill="#FF5973"/>
<defs>
<clipPath id="clip0_315_2309">
<rect width="24" height="24" fill="white" transform="translate(24 28)"/>
</clipPath>
</defs>
</svg>
