<svg width="71" height="74" viewBox="0 0 71 74" fill="none" xmlns="http://www.w3.org/2000/svg">
<circle cx="35.5" cy="39.5" r="22.5" fill="#FF9924"/>
<g clip-path="url(#clip0_315_2339)">
<path fill-rule="evenodd" clip-rule="evenodd" d="M36 52C42.6275 52 48 46.6275 48 40C48 33.3726 42.6275 28 36 28C29.3726 28 24 33.3726 24 40C24 46.6275 29.3726 52 36 52ZM34.5 32.5V40.6213L39.4394 45.5606L41.5606 43.4394L37.5 39.3787V32.5H34.5Z" fill="white"/>
</g>
<circle cx="18" cy="5" r="5" fill="#FF9924"/>
<circle cx="67" cy="28" r="4" fill="#FF9924"/>
<circle cx="45" cy="7" r="2" fill="#FF9924"/>
<circle cx="61" cy="47" r="2" fill="#FF9924"/>
<circle cx="2" cy="34" r="2" fill="#FF9924"/>
<circle cx="13" cy="60" r="2" fill="#FF9924"/>
<circle cx="41" cy="72" r="2" fill="#FF9924"/>
<defs>
<clipPath id="clip0_315_2339">
<rect width="24" height="24" fill="white" transform="translate(24 28)"/>
</clipPath>
</defs>
</svg>
