<svg width="60" height="60" viewBox="0 0 60 60" fill="none" xmlns="http://www.w3.org/2000/svg">
<g clip-path="url(#clip0_303_1097)">
<path d="M47.1682 52.9808L37.1239 54.91L34.5068 45.9082L37.1239 36.9064H39.1593C39.1593 36.9064 47.1682 40.2758 47.1682 52.9808Z" fill="#77718C"/>
<path d="M22.8763 36.9064L25.4934 45.9082L22.8763 54.91L12.832 52.9808C12.832 40.2758 20.8409 36.9064 20.8409 36.9064H22.8763Z" fill="#77718C"/>
<path d="M37.1239 36.9064V54.91L29.9999 56.4649L22.876 54.91V36.9064H37.1239Z" fill="#EAEAEA"/>
<path d="M25.4932 55.4811L27.6503 42.1127H32.3498L34.5069 55.4811H25.4932Z" fill="#FC5C70"/>
<path d="M27.1279 38.1136V41.9726C27.1279 43.5587 28.4136 44.8445 29.9998 44.8445C31.586 44.8445 32.8718 43.5588 32.8718 41.9726V38.1136H27.1279Z" fill="#FF6F7F"/>
<path d="M7.19629 22.8548C7.19629 10.2808 17.426 0.0511475 29.9999 0.0511475C42.5738 0.0511475 52.8036 10.2808 52.8036 22.8548H7.19629Z" fill="#77718C"/>
<path d="M15.2794 22.0655C15.2794 11.6875 22.1831 2.92342 31.648 0.111147C31.1036 0.0720328 30.5542 0.0511475 29.9999 0.0511475C17.426 0.0511475 7.19629 10.2808 7.19629 22.8548H15.2945C15.2855 22.5927 15.2794 22.3299 15.2794 22.0655Z" fill="#6A647F"/>
<path d="M48.6994 27.7553C51.4059 27.7553 53.5999 25.5613 53.5999 22.8548C53.5999 20.1483 51.4059 17.9542 48.6994 17.9542C45.9929 17.9542 43.7988 20.1483 43.7988 22.8548C43.7988 25.5613 45.9929 27.7553 48.6994 27.7553Z" fill="#FFBD86"/>
<path d="M42.616 9.21797C41.2171 7.92344 39.23 7.50139 37.4009 8.03765C35.2006 8.68268 32.6796 9.04896 30.0003 9.04896C27.3209 9.04896 24.7999 8.68256 22.5996 8.03765C20.7705 7.50151 18.7835 7.92344 17.3846 9.21797C13.7178 12.6114 11.4219 17.4647 11.4219 22.8548C11.4219 33.1152 19.7397 40.2258 30.0001 40.2258C40.2606 40.2258 48.5784 33.1152 48.5784 22.8548C48.5785 17.4647 46.2827 12.6114 42.616 9.21797Z" fill="#FED2A4"/>
<path d="M44.2452 21.2173C44.2452 24.2336 41.7917 26.6884 38.7754 26.6884C35.7591 26.6884 33.3057 24.2336 33.3057 21.2173C33.3057 18.201 35.7591 15.7476 38.7754 15.7476C41.7917 15.7477 44.2452 18.201 44.2452 21.2173Z" fill="#FFD7B6"/>
<path d="M27.0011 21.2173C27.0011 24.4024 24.4103 26.9945 21.2254 26.9945C18.0404 26.9945 15.4482 24.4024 15.4482 21.2173C15.4482 18.0323 18.0403 15.4417 21.2254 15.4417C24.4105 15.4417 27.0011 18.0323 27.0011 21.2173Z" fill="#FFD7B6"/>
<path d="M21.3595 19.7532C20.8595 19.7532 20.4541 20.1586 20.4541 20.6586V22.3189C20.4541 22.819 20.8595 23.2244 21.3595 23.2244C21.8596 23.2244 22.265 22.819 22.265 22.3189V20.6586C22.265 20.1586 21.8596 19.7532 21.3595 19.7532Z" fill="#423E4F"/>
<path d="M38.6408 19.7532C38.1406 19.7532 37.7354 20.1586 37.7354 20.6586V22.3189C37.7354 22.819 38.1406 23.2244 38.6408 23.2244C39.1409 23.2244 39.5462 22.819 39.5462 22.3189V20.6586C39.5462 20.1586 39.1408 19.7532 38.6408 19.7532Z" fill="#423E4F"/>
<path d="M32.5822 25.1091C32.205 24.7805 31.6331 24.8198 31.3047 25.1969C30.9753 25.575 30.4996 25.7918 29.9997 25.7918C29.4998 25.7918 29.0241 25.575 28.6945 25.1969C28.3659 24.8198 27.7942 24.7806 27.417 25.1091C27.04 25.4376 27.0008 26.0095 27.3293 26.3865C28.0028 27.1594 28.9761 27.6027 29.9996 27.6027C31.0231 27.6027 31.9962 27.1595 32.6698 26.3865C32.9985 26.0096 32.9591 25.4376 32.5822 25.1091Z" fill="#423E4F"/>
<path d="M22.6769 38.9192C18.1296 34.734 15.2795 28.733 15.2795 22.0656C15.2795 16.7047 17.1222 11.7745 20.2078 7.87244C19.1678 8.02805 18.1808 8.48113 17.3844 9.21815C14.8557 11.5583 12.9794 14.5929 12.058 18.0187C11.822 17.9769 11.5704 17.9542 11.301 17.9542C8.59444 17.9542 6.40039 20.1483 6.40039 22.8549C6.40039 25.5614 8.59444 27.7555 11.301 27.7555C11.5795 27.7555 11.8388 27.731 12.0817 27.6864C13.5834 32.9717 17.5301 36.9745 22.6769 38.9192Z" fill="#FFBD86"/>
<path d="M38.776 14.4087C35.3885 14.4087 32.572 16.8956 32.0529 20.1383C31.4058 19.8739 30.708 19.7338 30.0006 19.7338C29.2919 19.7338 28.5941 19.8739 27.947 20.1383C27.4279 16.8956 24.6114 14.4087 21.2251 14.4087C17.4706 14.4087 14.415 17.463 14.415 21.2175C14.415 24.9721 17.4706 28.0276 21.2251 28.0276C24.6549 28.0276 27.4991 25.4767 27.9651 22.1725C28.5627 21.7656 29.2726 21.5447 30.0006 21.5447C30.7273 21.5447 31.4384 21.7656 32.0348 22.1725C32.5007 25.4767 35.345 28.0276 38.776 28.0276C42.5305 28.0276 45.5849 24.9721 45.5849 21.2175C45.5849 17.463 42.5305 14.4087 38.776 14.4087ZM21.2251 26.2167C18.469 26.2167 16.2259 23.9737 16.2259 21.2175C16.2259 18.4614 18.469 16.2196 21.2251 16.2196C23.9812 16.2196 26.2231 18.4614 26.2231 21.2175C26.2231 23.9737 23.9812 26.2167 21.2251 26.2167ZM38.776 26.2167C36.0199 26.2167 33.778 23.9737 33.778 21.2175C33.778 18.4614 36.0199 16.2196 38.776 16.2196C41.5321 16.2196 43.774 18.4614 43.774 21.2175C43.774 23.9737 41.5321 26.2167 38.776 26.2167Z" fill="#423E4F"/>
<path d="M39.1764 46.1566C36.7679 46.1566 34.8154 48.1091 34.8154 50.5175C34.8154 51.8777 35.9181 52.9804 37.2783 52.9804L39.1764 54.7252L41.0744 52.9804C42.4346 52.9804 43.5373 51.8777 43.5373 50.5175C43.5373 48.1091 41.5848 46.1566 39.1764 46.1566Z" fill="#FED2A4"/>
<path d="M20.8238 46.1566C23.2323 46.1566 25.1847 48.1091 25.1847 50.5175C25.1847 51.8777 24.0821 52.9804 22.7218 52.9804L20.8238 54.7252L18.9258 52.9804C17.5656 52.9804 16.4629 51.8777 16.4629 50.5175C16.4629 48.1091 18.4154 46.1566 20.8238 46.1566Z" fill="#FED2A4"/>
<path d="M56.9401 52.9803H3.05988C1.36998 52.9803 0 54.3503 0 56.0402V57.9581C0 59.0575 0.891308 59.9488 1.99074 59.9488H58.0093C59.1087 59.9488 60 59.0575 60 57.9581V56.0402C60 54.3503 58.63 52.9803 56.9401 52.9803Z" fill="#E8A882"/>
<path d="M9.60495 52.9803H3.05988C1.36998 52.9803 0 54.3503 0 56.0402V57.9581C0 59.0575 0.891308 59.9488 1.99074 59.9488H12.7825C11.1962 57.962 10.0805 55.5832 9.60495 52.9803Z" fill="#E3986D"/>
</g>
<defs>
<clipPath id="clip0_303_1097">
<rect width="60" height="60" fill="white"/>
</clipPath>
</defs>
</svg>
