<svg width="295" height="292" viewBox="0 0 295 292" fill="none" xmlns="http://www.w3.org/2000/svg">
<g clip-path="url(#clip0_303_521)">
<path d="M273.251 258.962H18.2075C18.1802 258.962 18.1533 258.957 18.1281 258.946C18.1029 258.936 18.08 258.92 18.0608 258.901C18.0415 258.881 18.0262 258.858 18.0158 258.833C18.0054 258.807 18 258.78 18 258.753C18 258.725 18.0054 258.698 18.0158 258.672C18.0262 258.647 18.0415 258.624 18.0608 258.604C18.08 258.585 18.1029 258.569 18.1281 258.559C18.1533 258.548 18.1802 258.543 18.2075 258.543H273.25C273.305 258.543 273.358 258.565 273.397 258.604C273.436 258.644 273.458 258.697 273.458 258.753C273.458 258.808 273.436 258.861 273.397 258.901C273.358 258.94 273.305 258.962 273.25 258.962H273.251Z" fill="#292A2E"/>
<g opacity="0.65">
<path d="M273.251 258.962H18.2075C18.1802 258.962 18.1533 258.957 18.1281 258.946C18.1029 258.936 18.08 258.92 18.0608 258.901C18.0415 258.881 18.0262 258.858 18.0158 258.833C18.0054 258.807 18 258.78 18 258.753C18 258.725 18.0054 258.698 18.0158 258.672C18.0262 258.647 18.0415 258.624 18.0608 258.604C18.08 258.585 18.1029 258.569 18.1281 258.559C18.1533 258.548 18.1802 258.543 18.2075 258.543H273.25C273.305 258.543 273.358 258.565 273.397 258.604C273.436 258.644 273.458 258.697 273.458 258.753C273.458 258.808 273.436 258.861 273.397 258.901C273.358 258.94 273.305 258.962 273.25 258.962H273.251Z" fill="#292A2E"/>
</g>
<path d="M35.964 258.594L35.3818 258.48L44.4806 167.159L45.0628 167.272L35.964 258.594Z" fill="#494949"/>
<path d="M69.8434 258.594L69.2612 258.48L78.36 167.159L78.9419 167.272L69.8434 258.594Z" fill="#494949"/>
<path d="M144.733 258.594L145.315 258.48L136.216 167.159L135.634 167.272L144.733 258.594Z" fill="#494949"/>
<path d="M110.853 258.594L111.435 258.48L102.337 167.159L101.754 167.272L110.853 258.594Z" fill="#494949"/>
<path d="M98.7863 126.968L98.1987 127.048L103.514 167.256L104.102 167.177L98.7863 126.968Z" fill="#494949"/>
<path d="M37.7766 126.968L37.189 127.047L42.5043 167.256L43.0919 167.176L37.7766 126.968Z" fill="#494949"/>
<path d="M104.051 164.271H44.3762C42.7661 164.271 41.4609 165.589 41.4609 167.215V167.216C41.4609 168.842 42.7661 170.16 44.3762 170.16H104.051C105.661 170.16 106.966 168.842 106.966 167.216V167.215C106.966 165.589 105.661 164.271 104.051 164.271Z" fill="#292A2E"/>
<path opacity="0.8" d="M104.051 164.271H44.3762C42.7661 164.271 41.4609 165.589 41.4609 167.215V167.216C41.4609 168.842 42.7661 170.16 44.3762 170.16H104.051C105.661 170.16 106.966 168.842 106.966 167.216V167.215C106.966 165.589 105.661 164.271 104.051 164.271Z" fill="white"/>
<path d="M104.05 170.46H44.3764C43.5299 170.451 42.7209 170.106 42.1252 169.499C41.5295 168.891 41.1953 168.071 41.1953 167.216C41.1953 166.361 41.5295 165.54 42.1252 164.933C42.7209 164.325 43.5299 163.98 44.3764 163.972H104.05C104.896 163.98 105.705 164.325 106.301 164.933C106.897 165.54 107.231 166.361 107.231 167.216C107.231 168.071 106.897 168.891 106.301 169.499C105.705 170.106 104.896 170.451 104.05 170.46ZM44.3764 164.57C43.6867 164.578 43.0276 164.86 42.5425 165.355C42.0573 165.85 41.7852 166.519 41.7852 167.216C41.7852 167.912 42.0573 168.581 42.5425 169.076C43.0276 169.571 43.6867 169.853 44.3764 169.861H104.05C104.74 169.853 105.399 169.571 105.884 169.076C106.369 168.581 106.641 167.912 106.641 167.216C106.641 166.519 106.369 165.85 105.884 165.355C105.399 164.86 104.74 164.578 104.05 164.57H44.3764Z" fill="#292A2E"/>
<path d="M136.803 164.271H77.1286C75.5186 164.271 74.2134 165.589 74.2134 167.215V167.216C74.2134 168.842 75.5186 170.16 77.1286 170.16H136.803C138.413 170.16 139.718 168.842 139.718 167.216V167.215C139.718 165.589 138.413 164.271 136.803 164.271Z" fill="white"/>
<path d="M136.804 170.46H77.1291C76.7047 170.464 76.2837 170.383 75.8904 170.222C75.4972 170.06 75.1395 169.822 74.8379 169.52C74.5364 169.219 74.297 168.86 74.1337 168.464C73.9703 168.069 73.8862 167.644 73.8862 167.216C73.8862 166.787 73.9703 166.363 74.1337 165.967C74.297 165.571 74.5364 165.212 74.8379 164.911C75.1395 164.609 75.4972 164.371 75.8904 164.21C76.2837 164.048 76.7047 163.967 77.1291 163.972H136.804C137.228 163.967 137.649 164.048 138.042 164.21C138.436 164.371 138.793 164.609 139.095 164.911C139.396 165.212 139.636 165.571 139.799 165.967C139.962 166.363 140.046 166.787 140.046 167.216C140.046 167.644 139.962 168.069 139.799 168.464C139.636 168.86 139.396 169.219 139.095 169.52C138.793 169.822 138.436 170.06 138.042 170.222C137.649 170.383 137.228 170.464 136.804 170.46ZM77.1291 164.57C76.7828 164.567 76.4392 164.632 76.1182 164.764C75.7973 164.895 75.5052 165.089 75.2591 165.335C75.0129 165.581 74.8175 165.874 74.6841 166.197C74.5507 166.52 74.4821 166.866 74.4821 167.216C74.4821 167.565 74.5507 167.912 74.6841 168.234C74.8175 168.557 75.0129 168.85 75.2591 169.096C75.5052 169.342 75.7973 169.536 76.1182 169.668C76.4392 169.799 76.7828 169.864 77.1291 169.861H136.804C137.15 169.864 137.493 169.799 137.814 169.668C138.135 169.536 138.427 169.342 138.674 169.096C138.92 168.85 139.115 168.557 139.249 168.234C139.382 167.912 139.451 167.565 139.451 167.216C139.451 166.866 139.382 166.52 139.249 166.197C139.115 165.874 138.92 165.581 138.674 165.335C138.427 165.089 138.135 164.895 137.814 164.764C137.493 164.632 137.15 164.567 136.804 164.57H77.1291Z" fill="#292A2E"/>
<path d="M95.5173 127.007H37.6428C36.6966 127.007 35.7828 126.659 35.0718 126.029C34.3609 125.398 33.9015 124.528 33.7793 123.58L29.9511 93.8873C29.8795 93.3323 29.926 92.7682 30.0874 92.2327C30.2488 91.6973 30.5215 91.2028 30.8872 90.7822C31.2529 90.3617 31.7032 90.0248 32.208 89.794C32.7129 89.5632 33.2607 89.4438 33.8149 89.4438H91.6891C92.6353 89.4438 93.5491 89.7916 94.26 90.4222C94.971 91.0529 95.4304 91.9232 95.5526 92.8709L99.3808 122.564C99.4523 123.119 99.4058 123.683 99.2444 124.218C99.083 124.754 98.8104 125.248 98.4447 125.669C98.0791 126.089 97.6288 126.426 97.124 126.657C96.6192 126.888 96.0714 127.007 95.5173 127.007Z" fill="#292A2E"/>
<path opacity="0.8" d="M95.5173 127.007H37.6428C36.6966 127.007 35.7828 126.659 35.0718 126.029C34.3609 125.398 33.9015 124.528 33.7793 123.58L29.9511 93.8873C29.8795 93.3323 29.926 92.7682 30.0874 92.2327C30.2488 91.6973 30.5215 91.2028 30.8872 90.7822C31.2529 90.3617 31.7032 90.0248 32.208 89.794C32.7129 89.5632 33.2607 89.4438 33.8149 89.4438H91.6891C92.6353 89.4438 93.5491 89.7916 94.26 90.4222C94.971 91.0529 95.4304 91.9232 95.5526 92.8709L99.3808 122.564C99.4523 123.119 99.4058 123.683 99.2444 124.218C99.083 124.754 98.8104 125.248 98.4447 125.669C98.0791 126.089 97.6288 126.426 97.124 126.657C96.6192 126.888 96.0714 127.007 95.5173 127.007Z" fill="white"/>
<path d="M95.5174 127.306H37.643C36.6255 127.304 35.6434 126.929 34.8789 126.251C34.1143 125.573 33.6192 124.638 33.4854 123.619L29.6572 93.9265C29.5802 93.3292 29.6302 92.7223 29.8039 92.1461C29.9775 91.5699 30.2709 91.0378 30.6644 90.5853C31.0579 90.1327 31.5425 89.7702 32.0857 89.5218C32.629 89.2735 33.2184 89.145 33.8147 89.145H91.6892C92.7068 89.1473 93.6891 89.5224 94.4537 90.2006C95.2183 90.8789 95.7134 91.8142 95.847 92.8331L99.6753 122.526C99.7522 123.123 99.7021 123.73 99.5284 124.306C99.3546 124.882 99.0612 125.414 98.6677 125.867C98.2742 126.319 97.7897 126.682 97.2464 126.93C96.7032 127.179 96.1137 127.307 95.5174 127.307V127.306ZM33.8147 89.7432C33.3027 89.7432 32.7967 89.8535 32.3302 90.0668C31.8638 90.28 31.4478 90.5913 31.11 90.9799C30.7722 91.3685 30.5203 91.8253 30.3712 92.32C30.2221 92.8147 30.1791 93.3359 30.2453 93.8486L34.0732 123.541C34.1881 124.416 34.6132 125.219 35.2696 125.801C35.9261 126.384 36.7693 126.706 37.643 126.708H95.5174C96.0295 126.708 96.5357 126.597 97.0022 126.384C97.4687 126.171 97.8848 125.859 98.2226 125.471C98.5605 125.082 98.8124 124.625 98.9615 124.13C99.1105 123.635 99.1534 123.114 99.0872 122.601L95.2589 92.9089C95.1441 92.0342 94.719 91.2313 94.0625 90.6491C93.406 90.067 92.5628 89.7451 91.6892 89.7432H33.8147Z" fill="#292A2E"/>
<path d="M98.7904 127.007H40.916C39.9698 127.007 39.0559 126.659 38.3449 126.029C37.6339 125.398 37.1744 124.528 37.0522 123.58L33.224 93.8873C33.1525 93.3323 33.199 92.7682 33.3605 92.2328C33.5219 91.6974 33.7946 91.203 34.1603 90.7824C34.5259 90.3619 34.9762 90.025 35.481 89.7941C35.9859 89.5633 36.5336 89.4439 37.0878 89.4438H94.9622C95.9084 89.4438 96.8223 89.7916 97.5333 90.4222C98.2443 91.0528 98.7038 91.9232 98.826 92.8709L102.654 122.564C102.726 123.119 102.679 123.683 102.518 124.218C102.356 124.754 102.084 125.248 101.718 125.669C101.352 126.089 100.902 126.426 100.397 126.657C99.8923 126.888 99.3446 127.007 98.7904 127.007Z" fill="white"/>
<path d="M98.7904 127.306H40.9159C39.8984 127.304 38.9163 126.929 38.1518 126.251C37.3872 125.573 36.8921 124.638 36.7584 123.619L32.9301 93.9265C32.8531 93.3292 32.9031 92.7223 33.0768 92.1461C33.2505 91.5699 33.5439 91.0378 33.9374 90.5853C34.3309 90.1327 34.8154 89.7702 35.3587 89.5218C35.9019 89.2735 36.4914 89.145 37.0877 89.145H94.9622C95.9798 89.1473 96.962 89.5224 97.7266 90.2006C98.4911 90.8788 98.9861 91.8142 99.1197 92.8331L102.948 122.526C103.025 123.123 102.975 123.73 102.801 124.306C102.628 124.882 102.334 125.414 101.941 125.867C101.547 126.319 101.063 126.682 100.519 126.93C99.9761 127.179 99.3867 127.307 98.7904 127.307V127.306ZM37.0877 89.7432C36.5757 89.7432 36.0696 89.8535 35.6032 90.0668C35.1367 90.28 34.7207 90.5913 34.3828 90.9799C34.045 91.3684 33.7931 91.8253 33.6439 92.32C33.4948 92.8147 33.4518 93.3358 33.5179 93.8486L37.3462 123.541C37.4609 124.416 37.886 125.219 38.5424 125.802C39.1989 126.384 40.0422 126.706 40.9159 126.708H98.7904C99.3025 126.708 99.8087 126.597 100.275 126.384C100.742 126.171 101.158 125.859 101.496 125.471C101.834 125.082 102.086 124.625 102.235 124.13C102.384 123.636 102.427 123.114 102.36 122.601L98.5322 92.9089C98.4175 92.0341 97.9924 91.231 97.336 90.6487C96.6795 90.0663 95.8362 89.7443 94.9624 89.7423L37.0877 89.7432Z" fill="#292A2E"/>
<path d="M180.413 243.32C180.413 243.32 182.002 251.641 189.716 252.105C197.429 252.568 195.757 258.775 195.757 258.775H166.28V243.901L180.413 243.32Z" fill="black"/>
<path d="M124.334 238.067C124.334 238.067 122.124 246.242 128.843 250.097C135.562 253.952 131.348 258.775 131.348 258.775L104.898 245.632L111.399 232.285L124.334 238.067Z" fill="black"/>
<path d="M100.599 44.178C100.599 44.178 104.445 41.2462 105.398 34.4975C106.136 29.272 101.363 32.6572 101.363 32.6572C101.363 32.6572 101.858 28.8897 99.1401 29.2634C96.422 29.637 94.9014 33.5954 94.9014 33.5954" fill="#0C0C0C"/>
<path d="M85.0933 29.7043C85.0933 29.7043 71.6078 31.1647 76.4826 49.6211L77.676 49.7016L80.0983 49.8657" fill="#0C0C0C"/>
<path d="M98.3405 68.8961C98.2812 68.8883 97.6232 79.9134 84.9407 78.953C76.1608 78.2889 73.0304 68.8805 72.8291 68.8805C73.7759 68.6772 74.9455 68.3689 75.4106 68.2629C76.4238 68.0253 77.3414 67.4818 78.0413 66.7046C78.7412 65.9275 79.1902 64.9535 79.3286 63.9123C79.5856 62.3495 79.1508 54.3536 79.2839 52.7722L92.761 55.8107C92.5728 59.1503 91.2547 66.8926 95.8734 68.2629C96.6432 68.4895 97.4711 68.6979 98.3405 68.8961Z" fill="#E98862"/>
<path opacity="0.52" d="M92.9506 65.0986C92.7395 64.4115 92.6035 63.7031 92.5451 62.9861C92.3972 61.3498 92.427 59.7021 92.634 58.0723C89.8948 57.6989 87.3141 56.5569 85.1854 54.7761C84.9352 55.7096 83.5589 59.7884 83.9404 60.6758C84.6592 62.3526 88.0434 65.0986 92.9506 65.0986Z" fill="#0C0C0C"/>
<path d="M90.1687 62.9163C84.8515 62.4346 78.4878 59.0417 78.3962 51.7521L78.3132 45.1749C78.2216 37.8852 81.9378 31.9272 88.7334 31.8401C95.5288 31.7527 100.683 37.5969 100.774 44.8863L100.811 47.7981C100.806 48.7981 100.734 49.7967 100.595 50.7868C100.246 53.4064 99.7056 57.3891 97.9457 60.0836C96.2834 62.6268 93.5653 63.2241 90.1687 62.9163Z" fill="#E98862"/>
<path d="M92.6356 56.2532C93.7328 56.3035 94.8264 56.0925 95.828 55.6374C95.8487 55.6285 95.8675 55.6155 95.8832 55.5993C95.899 55.583 95.9114 55.5638 95.9198 55.5427C95.9282 55.5216 95.9324 55.499 95.9322 55.4763C95.9319 55.4536 95.9273 55.4311 95.9184 55.4102C95.9096 55.3893 95.8968 55.3703 95.8807 55.3544C95.8646 55.3385 95.8456 55.3259 95.8247 55.3175C95.8038 55.309 95.7814 55.3047 95.7589 55.305C95.7364 55.3052 95.7142 55.3099 95.6935 55.3189C93.5355 56.2484 91.5759 56.1122 90.0269 54.9252C89.9956 54.9002 89.963 54.8769 89.9293 54.8554C89.8904 54.8372 89.8461 54.8344 89.8052 54.8475C89.7643 54.8606 89.7298 54.8887 89.7084 54.9263C89.687 54.9639 89.6803 55.0082 89.6897 55.0505C89.699 55.0928 89.7237 55.13 89.7589 55.1548C89.7713 55.1626 89.7912 55.1785 89.8182 55.2003C90.6326 55.8268 91.6136 56.1934 92.6356 56.2532Z" fill="#0C0C0C"/>
<path d="M92.5843 57.8956C92.7826 57.9081 92.9815 57.9032 93.1789 57.8812C93.2241 57.8763 93.2656 57.8536 93.2942 57.8179C93.3227 57.7821 93.3361 57.7364 93.3313 57.6908C93.3265 57.6451 93.3039 57.6033 93.2686 57.5744C93.2332 57.5455 93.188 57.5321 93.1428 57.5369C91.955 57.6644 91.3883 57.1148 91.3643 57.0911C91.3318 57.0601 91.2887 57.0431 91.244 57.0437C91.1993 57.0443 91.1567 57.0625 91.125 57.0944C91.0934 57.1263 91.0754 57.1694 91.0747 57.2145C91.0741 57.2596 91.0908 57.3032 91.1215 57.336C91.5306 57.6874 92.0474 57.8851 92.5843 57.8956Z" fill="#0C0C0C"/>
<path d="M98.5304 49.1999C98.9927 49.1999 99.3675 48.8214 99.3675 48.3545C99.3675 47.8876 98.9927 47.509 98.5304 47.509C98.0681 47.509 97.6934 47.8876 97.6934 48.3545C97.6934 48.8214 98.0681 49.1999 98.5304 49.1999Z" fill="#0C0C0C"/>
<path d="M90.3527 48.6816C90.815 48.6816 91.1898 48.3031 91.1898 47.8362C91.1898 47.3692 90.815 46.9907 90.3527 46.9907C89.8904 46.9907 89.5156 47.3692 89.5156 47.8362C89.5156 48.3031 89.8904 48.6816 90.3527 48.6816Z" fill="#0C0C0C"/>
<path d="M78.8462 53.9674C76.7811 53.9941 75.0791 51.784 75.0521 49.6982C75.0251 47.6124 76.6853 46.441 78.7505 46.4143L79.8321 47.7981L80.6212 53.9447L78.8462 53.9674Z" fill="#E98862"/>
<path d="M80.8995 50.6159C80.8995 50.6159 81.597 40.3012 84.6937 39.6644C86.7561 39.2402 91.7576 42.1948 96.39 41.3024C98.4169 40.9132 100.341 41.4188 100.537 42.3855C100.614 42.7685 101.877 37.2661 98.7029 33.0915C96.176 29.7683 87.9065 28.8283 84.1444 29.918C73.7274 32.9364 78.3243 46.8685 78.3243 46.8685L78.7888 50.4243L80.8995 50.6159Z" fill="#0C0C0C"/>
<path d="M93.8824 53.819C93.8868 53.8193 93.8913 53.8193 93.8957 53.819C94.5612 53.8122 95.6766 53.7259 95.6722 53.223C95.6677 52.8062 94.4939 48.3206 94.3596 47.8104C94.3448 47.7707 94.3159 47.7379 94.2785 47.7184C94.2411 47.699 94.1979 47.6943 94.1573 47.7052C94.1166 47.7162 94.0815 47.742 94.0586 47.7776C94.0358 47.8133 94.0268 47.8562 94.0336 47.8981C94.555 49.8849 95.3316 52.9434 95.3348 53.2272C95.2705 53.3469 94.5831 53.47 93.894 53.4772C93.8505 53.4781 93.8091 53.4959 93.7782 53.5268C93.7473 53.5577 93.7294 53.5994 93.7281 53.6433C93.7268 53.6872 93.7423 53.7299 93.7712 53.7626C93.8002 53.7953 93.8406 53.8155 93.8839 53.819H93.8824Z" fill="#0C0C0C"/>
<path d="M96.1545 43.7701C96.8539 43.5757 97.5923 43.5757 98.2917 43.7701C98.6353 43.8634 98.963 44.0083 99.2639 44.2C99.5614 44.3877 99.8342 44.6126 100.076 44.8694C100.122 44.9147 100.149 44.9765 100.151 45.0416C100.153 45.1067 100.129 45.1699 100.085 45.2177C100.041 45.2654 99.9807 45.2939 99.9163 45.2971C99.8519 45.3003 99.7888 45.2779 99.7406 45.2347L99.7255 45.2215C99.5016 45.0123 99.2527 44.8324 98.9844 44.6859C98.7212 44.5403 98.4377 44.4358 98.1435 44.376C97.5644 44.2531 96.9634 44.287 96.4015 44.4742L96.3777 44.4826C96.285 44.5157 96.1831 44.5103 96.0943 44.4675C96.0056 44.4247 95.9373 44.348 95.9045 44.2543C95.8717 44.1607 95.8771 44.0577 95.9195 43.9681C95.9619 43.8784 96.0378 43.8095 96.1305 43.7764L96.1545 43.7701Z" fill="#0C0C0C"/>
<path d="M91.2018 44.1945C90.6697 43.9333 90.0786 43.8187 89.4885 43.8625C89.189 43.8821 88.8942 43.9476 88.6141 44.0565C88.3294 44.1657 88.0593 44.3105 87.8102 44.4876L87.7942 44.4984C87.7408 44.533 87.6761 44.5455 87.6138 44.5332C87.5515 44.5209 87.4962 44.4849 87.4595 44.4326C87.4228 44.3802 87.4075 44.3156 87.4167 44.2522C87.4259 44.1887 87.459 44.1313 87.5091 44.0918C87.7826 43.8699 88.0826 43.6836 88.4022 43.5373C88.7258 43.3881 89.0697 43.2886 89.4224 43.2422C89.7758 43.192 90.1342 43.1911 90.4878 43.2395C90.8506 43.285 91.2053 43.3825 91.5409 43.529C91.6313 43.5687 91.7024 43.643 91.7386 43.7356C91.7747 43.8283 91.7729 43.9316 91.7336 44.0229C91.6943 44.1143 91.6207 44.1861 91.529 44.2226C91.4372 44.259 91.3349 44.2572 91.2445 44.2175C91.2377 44.2145 91.2306 44.2113 91.2241 44.2077L91.2018 44.1945Z" fill="#0C0C0C"/>
<path d="M95.1595 36.6696C96.688 36.347 97.5461 34.2434 97.0761 31.9711C96.606 29.6987 94.9858 28.118 93.4572 28.4406C91.9286 28.7632 91.0705 30.8668 91.5406 33.1392C92.0106 35.4115 93.6309 36.9922 95.1595 36.6696Z" fill="#0C0C0C"/>
<path d="M107.953 235.758L130.258 164.687H89.8263C81.7045 164.687 78.3188 157.731 78.3188 149.528C78.3188 141.326 86.3031 134.135 94.4244 134.135H148.992C153.945 134.135 159.499 137.195 162.218 141.377C164.937 145.56 164.202 152.04 162.232 156.631L126.514 244.251" fill="#262626"/>
<path opacity="0.8" d="M107.953 235.758L130.258 164.687H89.8263C81.7045 164.687 78.3188 157.731 78.3188 149.528C78.3188 141.326 86.3031 134.135 94.4244 134.135H148.992C153.945 134.135 159.499 137.195 162.218 141.377C164.937 145.56 164.202 152.04 162.232 156.631L126.514 244.251" fill="#0A0A0A"/>
<path d="M164.585 251.048L127.289 164.687L78.3184 164.684C66.8438 163.775 61.5886 157.424 61.7558 149.223C61.9206 141.126 65.9797 133.129 73.9602 133.129H139.964C145.868 133.251 150.514 139.842 152.704 145.381L183.71 245.761" fill="#262626"/>
<path d="M58.4156 133.228C58.4156 133.228 56.2408 147.552 59.6881 155.516C63.9918 165.459 80.1252 164.684 80.1252 164.684L79.216 133.129L58.4156 133.228Z" fill="#262626"/>
<path d="M154.108 132.946L119.516 125.706C118.074 125.405 116.732 124.741 115.612 123.776C114.492 122.811 113.631 121.576 113.109 120.186L99.503 83.975C99.0887 82.8882 98.8911 81.7295 98.9215 80.5653C98.9519 79.4012 99.2097 78.2546 99.6802 77.1914C100.151 76.1282 100.824 75.1694 101.663 74.37C102.501 73.5706 103.488 72.9464 104.566 72.5332C105.644 72.12 106.792 71.926 107.944 71.9623C109.097 71.9986 110.231 72.2646 111.281 72.7448C112.332 73.2251 113.278 73.9102 114.065 74.7609C114.852 75.6115 115.466 76.6109 115.87 77.7017L127.771 109.376L157.661 115.632C157.661 115.632 154.708 133.071 154.108 132.946Z" fill="#1F41BB"/>
<path d="M114.098 93.172C113.699 97.9121 110.867 127.484 110.482 133.323H58.4385C58.1394 128.057 56.7966 105.031 55.6628 94.7324C54.5803 84.9063 53.063 80.4347 54.3097 77.381C56.5085 71.9954 63.5075 69.5902 68.2472 68.9423C71.1411 68.5465 75.494 68.2627 75.494 68.2627C75.494 68.2627 75.8627 75.7931 84.6509 76.2122C96.614 76.781 95.8151 68.2627 95.8744 68.2627C97.8124 68.2627 108.362 69.6863 111 71.4227C114.726 73.8755 115.827 77.2178 115.87 80.2889C115.92 83.8246 114.551 87.7947 114.098 93.172Z" fill="#1F41BB"/>
<path d="M112.053 117.334H112.041C112.021 117.333 112.002 117.327 111.985 117.318C111.968 117.309 111.952 117.297 111.94 117.282C111.927 117.267 111.918 117.249 111.912 117.231C111.906 117.212 111.904 117.192 111.905 117.173L113.256 100.78C113.257 100.76 113.263 100.741 113.271 100.723C113.28 100.706 113.292 100.69 113.307 100.677C113.322 100.664 113.339 100.655 113.358 100.649C113.377 100.643 113.397 100.641 113.416 100.643C113.436 100.645 113.454 100.651 113.472 100.66C113.489 100.669 113.504 100.681 113.517 100.696C113.53 100.711 113.539 100.728 113.545 100.747C113.551 100.766 113.553 100.786 113.552 100.805L112.201 117.198C112.197 117.235 112.18 117.27 112.153 117.295C112.126 117.32 112.09 117.334 112.053 117.334Z" fill="#0C0C0C"/>
<path d="M120.42 130.072L131.839 94.6181C132.04 93.9951 132.431 93.4523 132.956 93.0673C133.481 92.6823 134.113 92.4749 134.761 92.4749H181.284C181.769 92.4748 182.247 92.5908 182.68 92.8132C183.112 93.0356 183.486 93.3581 183.77 93.7544C184.055 94.1508 184.244 94.6096 184.319 95.0934C184.395 95.5772 184.356 96.0723 184.206 96.5381L172.787 131.992C172.586 132.615 172.196 133.158 171.671 133.543C171.146 133.928 170.514 134.135 169.865 134.135H123.342C122.857 134.135 122.379 134.019 121.947 133.797C121.515 133.575 121.141 133.252 120.856 132.856C120.571 132.459 120.383 132 120.307 131.517C120.231 131.033 120.27 130.538 120.42 130.072Z" fill="#292A2E"/>
<path opacity="0.2" d="M120.42 130.072L131.839 94.6181C132.04 93.9951 132.431 93.4523 132.956 93.0673C133.481 92.6823 134.113 92.4749 134.761 92.4749H181.284C181.769 92.4748 182.247 92.5908 182.68 92.8132C183.112 93.0356 183.486 93.3581 183.77 93.7544C184.055 94.1508 184.244 94.6096 184.319 95.0934C184.395 95.5772 184.356 96.0723 184.206 96.5381L172.787 131.992C172.586 132.615 172.196 133.158 171.671 133.543C171.146 133.928 170.514 134.135 169.865 134.135H123.342C122.857 134.135 122.379 134.019 121.947 133.797C121.515 133.575 121.141 133.252 120.856 132.856C120.571 132.459 120.383 132 120.307 131.517C120.231 131.033 120.27 130.538 120.42 130.072Z" fill="white"/>
<path d="M129.735 131.26H98.5925C97.8166 131.26 97.1875 131.896 97.1875 132.68V132.716C97.1875 133.5 97.8166 134.135 98.5925 134.135H129.735C130.511 134.135 131.14 133.5 131.14 132.716V132.68C131.14 131.896 130.511 131.26 129.735 131.26Z" fill="#292A2E"/>
<path opacity="0.2" d="M129.735 131.26H98.5925C97.8166 131.26 97.1875 131.896 97.1875 132.68V132.716C97.1875 133.5 97.8166 134.135 98.5925 134.135H129.735C130.511 134.135 131.14 133.5 131.14 132.716V132.68C131.14 131.896 130.511 131.26 129.735 131.26Z" fill="white"/>
<path d="M152.313 119.963C155.008 119.963 157.192 117.756 157.192 115.035C157.192 112.313 155.008 110.106 152.313 110.106C149.618 110.106 147.434 112.313 147.434 115.035C147.434 117.756 149.618 119.963 152.313 119.963Z" fill="white"/>
<path d="M114.57 86.5635H102.199V101.887H114.57V86.5635Z" fill="white"/>
<path d="M102.199 99.3417C101.197 99.3417 100.218 99.0416 99.3848 98.4793C98.5517 97.9171 97.9024 97.118 97.5189 96.183C97.1355 95.248 97.0352 94.2192 97.2306 93.2267C97.4261 92.2341 97.9086 91.3224 98.6171 90.6068C99.3256 89.8912 100.228 89.4039 101.211 89.2065C102.194 89.009 103.212 89.1104 104.138 89.4977C105.064 89.8849 105.855 90.5408 106.412 91.3822C106.968 92.2236 107.265 93.2129 107.265 94.2249C107.264 95.5815 106.73 96.8821 105.78 97.8413C104.83 98.8006 103.543 99.3402 102.199 99.3417ZM102.199 91.2041C101.608 91.2041 101.029 91.3813 100.538 91.7133C100.046 92.0453 99.6623 92.5171 99.4359 93.0692C99.2095 93.6212 99.1503 94.2287 99.2657 94.8147C99.3812 95.4007 99.6661 95.9391 100.084 96.3615C100.503 96.784 101.036 97.0717 101.616 97.1883C102.196 97.3048 102.798 97.2449 103.344 97.0162C103.891 96.7875 104.358 96.4003 104.687 95.9034C105.015 95.4066 105.191 94.8224 105.191 94.2249C105.19 93.4239 104.874 92.656 104.314 92.0897C103.753 91.5233 102.992 91.2049 102.199 91.2041Z" fill="white"/>
<path d="M102.913 96.4952C102.8 96.1993 102.588 95.9528 102.313 95.7991C102.038 95.6453 101.719 95.594 101.411 95.6543C101.417 95.6399 101.42 95.6246 101.42 95.6091L101.835 95.4217C102.126 95.2968 102.365 95.0743 102.512 94.7919C102.659 94.5095 102.704 94.1844 102.641 93.8718C102.598 93.6765 102.512 93.4935 102.39 93.3359C102.268 93.1783 102.113 93.05 101.935 92.9603C101.758 92.8706 101.564 92.8216 101.366 92.8171C101.168 92.8125 100.971 92.8523 100.79 92.9338L99.8112 93.376C99.8112 93.3721 99.8112 93.3682 99.8091 93.3643C99.8053 93.3564 99.8005 93.3489 99.7949 93.3421C100.036 93.1586 100.208 92.8979 100.284 92.6026C100.36 92.3073 100.334 91.9949 100.211 91.7162C99.9396 90.9734 98.9762 90.9141 98.3392 91.2013L95.7799 92.244L96.5524 91.4527C96.7944 91.1947 96.9304 90.8536 96.933 90.4982C96.9355 90.1428 96.8043 89.7997 96.566 89.5382C96.4383 89.4076 96.2855 89.3047 96.117 89.2357C95.9485 89.1667 95.7679 89.1332 95.5862 89.137C95.4044 89.1409 95.2254 89.1821 95.0599 89.2582C94.8945 89.3343 94.7461 89.4436 94.6239 89.5795L85.5239 99.6172L88.6363 102.645C89.6027 103.585 90.8252 104.212 92.1469 104.446C93.4687 104.68 94.8296 104.51 96.055 103.958L101.602 101.446C101.892 101.322 102.131 101.099 102.278 100.817C102.425 100.534 102.471 100.209 102.408 99.8965C102.345 99.6159 102.195 99.3629 101.98 99.1744C101.764 98.9859 101.495 98.8718 101.211 98.8487C101.214 98.8332 101.214 98.8171 101.211 98.8016C101.208 98.786 101.202 98.7712 101.194 98.7581C101.185 98.7449 101.174 98.7336 101.16 98.7248C101.147 98.7161 101.133 98.7101 101.117 98.7071L102.141 98.2454C102.466 98.1068 102.726 97.8489 102.869 97.524C103.012 97.1991 103.028 96.8314 102.913 96.4952Z" fill="#E98862"/>
<path opacity="0.2" d="M97.9607 94.2253C97.9314 94.2255 97.9029 94.2152 97.8802 94.1964C97.8576 94.1775 97.8422 94.1513 97.8367 94.1221C97.8312 94.093 97.836 94.0629 97.8502 94.0369C97.8644 94.011 97.8871 93.9909 97.9145 93.9801L99.6456 93.2916C99.6609 93.2854 99.6773 93.2824 99.6938 93.2827C99.7103 93.283 99.7266 93.2866 99.7417 93.2932C99.7569 93.2999 99.7706 93.3095 99.782 93.3215C99.7935 93.3334 99.8025 93.3476 99.8086 93.3631C99.8146 93.3786 99.8176 93.3952 99.8173 93.4119C99.817 93.4285 99.8135 93.445 99.8069 93.4603C99.8003 93.4755 99.7908 93.4894 99.779 93.501C99.7671 93.5125 99.7531 93.5217 99.7377 93.5278L98.0067 94.2164C97.992 94.2222 97.9764 94.2252 97.9607 94.2253Z" fill="#0C0C0C"/>
<path opacity="0.2" d="M98.9266 96.6976C98.8975 96.6975 98.8693 96.6872 98.8468 96.6684C98.8244 96.6497 98.8091 96.6236 98.8036 96.5947C98.798 96.5658 98.8026 96.5359 98.8165 96.51C98.8304 96.4842 98.8528 96.464 98.8798 96.453L101.248 95.491C101.278 95.4802 101.312 95.4817 101.341 95.4952C101.371 95.5087 101.394 95.5332 101.406 95.5635C101.418 95.5938 101.418 95.6276 101.406 95.658C101.394 95.6883 101.371 95.7128 101.341 95.7264L98.9737 96.6886C98.9587 96.6945 98.9427 96.6975 98.9266 96.6976Z" fill="#0C0C0C"/>
<path opacity="0.2" d="M99.9592 99.382C99.9298 99.382 99.9013 99.3716 99.8786 99.3525C99.856 99.3335 99.8408 99.307 99.8355 99.2777C99.8303 99.2485 99.8353 99.2183 99.8499 99.1924C99.8644 99.1665 99.8875 99.1467 99.915 99.1362L101.044 98.7084C101.075 98.6965 101.11 98.6976 101.14 98.7115C101.17 98.7253 101.194 98.7508 101.206 98.7823C101.218 98.8139 101.217 98.8488 101.203 98.8795C101.189 98.9103 101.164 98.9342 101.133 98.9461L100.004 99.3739C99.9896 99.3793 99.9745 99.382 99.9592 99.382Z" fill="#0C0C0C"/>
<path d="M105.545 76.8165C105.49 76.8166 105.437 76.8014 105.39 76.7727C105.343 76.7439 105.306 76.7027 105.281 76.6536C104.606 75.3247 103.766 73.6703 103.861 71.936C103.936 70.5567 104.576 69.3313 105.195 68.1479C105.594 67.4325 105.935 66.6851 106.213 65.9133C106.552 64.8482 106.638 63.7173 106.463 62.6126C106.288 61.5078 105.857 60.4604 105.205 59.5556C105.181 59.5241 105.163 59.4879 105.152 59.4493C105.142 59.4107 105.14 59.3704 105.145 59.3307C105.15 59.2911 105.163 59.2529 105.184 59.2185C105.204 59.1841 105.231 59.1541 105.263 59.1304C105.294 59.1066 105.331 59.0895 105.369 59.0801C105.408 59.0707 105.448 59.0693 105.487 59.0757C105.526 59.0822 105.563 59.0965 105.597 59.1179C105.63 59.1392 105.659 59.1671 105.682 59.1999C106.39 60.1818 106.858 61.3186 107.048 62.5178C107.239 63.717 107.146 64.9447 106.779 66.101C106.491 66.9047 106.137 67.6829 105.721 68.4275C105.105 69.6068 104.523 70.7205 104.455 71.9692C104.369 73.5413 105.135 75.0499 105.81 76.3806C105.833 76.4262 105.844 76.4771 105.843 76.5283C105.841 76.5795 105.826 76.6294 105.799 76.6731C105.773 76.7169 105.736 76.753 105.691 76.7782C105.647 76.8033 105.597 76.8165 105.547 76.8165H105.545Z" fill="white"/>
<path d="M110.305 81.4893C110.239 81.4893 110.175 81.4672 110.123 81.4266C110.071 81.3859 110.034 81.329 110.018 81.2647C110.001 81.2005 110.006 81.1325 110.032 81.0716C110.058 81.0106 110.104 80.9601 110.161 80.928C111.26 80.316 111.383 78.6128 110.867 77.3198C110.611 76.7255 110.311 76.1513 109.971 75.6019C109.515 74.8902 109.145 74.1264 108.868 73.3266C108.585 72.3515 108.567 71.3174 108.816 70.333C109.066 69.3486 109.573 68.4502 110.285 67.7324C110.342 67.6779 110.417 67.6482 110.496 67.6497C110.574 67.6512 110.648 67.6839 110.703 67.7405C110.757 67.7971 110.787 67.8732 110.786 67.9521C110.785 68.0311 110.754 68.1065 110.698 68.162C110.063 68.8022 109.611 69.6033 109.389 70.4811C109.166 71.3589 109.182 72.2811 109.434 73.1506C109.698 73.9051 110.049 74.6255 110.48 75.2966C110.837 75.8714 111.15 76.4728 111.416 77.0956C112.021 78.6095 111.886 80.6507 110.447 81.4519C110.404 81.4763 110.354 81.4891 110.305 81.4893Z" fill="white"/>
<path d="M95.9578 107.586L52.3105 125.83C50.7368 126.481 49.0095 126.655 47.3398 126.33C45.67 126.005 44.1301 125.196 42.9081 124.002C41.6861 122.808 40.8349 121.28 40.4587 119.605C40.0824 117.93 40.1973 116.181 40.7893 114.571L53.8074 78.6587C55.4904 74.0817 60.2316 71.4498 64.7635 73.15C66.9396 73.9664 68.7055 75.6224 69.6728 77.7538C70.64 79.8851 70.7294 82.3173 69.9212 84.5152L63.9833 101.513L89.5641 91.5519" fill="#1F41BB"/>
<path d="M95.8512 107.749C95.828 107.749 95.8053 107.742 95.786 107.728C95.7667 107.715 95.7517 107.697 95.7427 107.675L89.392 91.748L63.8969 101.686C63.8758 101.694 63.8528 101.696 63.8307 101.691C63.8085 101.686 63.7882 101.675 63.7722 101.659C63.7563 101.643 63.7453 101.622 63.7407 101.6C63.7361 101.578 63.7381 101.554 63.7463 101.533L67.6887 91.3132C67.6999 91.2841 67.7222 91.2608 67.7505 91.2482C67.7788 91.2357 67.8109 91.235 67.8397 91.2463C67.8685 91.2577 67.8917 91.2801 67.9041 91.3087C67.9165 91.3374 67.9172 91.3698 67.906 91.3989L64.0597 101.369L89.4154 91.4857C89.444 91.4746 89.4758 91.4752 89.5039 91.4875C89.532 91.4999 89.5542 91.5229 89.5657 91.5516L95.9594 107.587C95.9706 107.616 95.97 107.648 95.958 107.677C95.9459 107.706 95.9232 107.728 95.8948 107.74C95.8809 107.746 95.8661 107.749 95.8512 107.749Z" fill="#0C0C0C"/>
<path d="M55.89 104.848C55.8627 104.848 55.8361 104.839 55.815 104.821C55.7939 104.804 55.7796 104.779 55.7745 104.752C55.7694 104.725 55.7739 104.697 55.7872 104.673C55.8005 104.649 55.8218 104.63 55.8473 104.621L63.8325 101.447C63.8468 101.441 63.8621 101.438 63.8776 101.438C63.8931 101.438 63.9084 101.442 63.9226 101.448C63.9369 101.454 63.9498 101.463 63.9606 101.474C63.9714 101.485 63.9799 101.498 63.9855 101.513C63.9912 101.527 63.994 101.543 63.9937 101.559C63.9933 101.574 63.9899 101.59 63.9837 101.604C63.9774 101.618 63.9684 101.631 63.9571 101.642C63.9459 101.653 63.9326 101.661 63.9181 101.667L55.9327 104.84C55.9191 104.845 55.9046 104.848 55.89 104.848Z" fill="#0C0C0C"/>
<path d="M57.7499 123.7C57.7228 123.7 57.6965 123.691 57.6756 123.673C57.6546 123.656 57.6403 123.632 57.635 123.605C57.6298 123.578 57.6339 123.55 57.6468 123.526C57.6596 123.502 57.6803 123.484 57.7054 123.473L95.8083 107.522C95.8224 107.516 95.8376 107.513 95.8529 107.513C95.8682 107.513 95.8833 107.516 95.8975 107.522C95.9116 107.528 95.9245 107.537 95.9353 107.548C95.9461 107.559 95.9546 107.572 95.9605 107.586C95.9663 107.6 95.9693 107.616 95.9693 107.631C95.9693 107.647 95.9662 107.662 95.9604 107.676C95.9545 107.69 95.9459 107.703 95.935 107.714C95.9242 107.725 95.9114 107.734 95.8972 107.74L57.7943 123.691C57.7803 123.697 57.7651 123.7 57.7499 123.7Z" fill="#0C0C0C"/>
<path d="M251.194 219.701C251.116 219.701 251.04 219.669 250.985 219.613C250.567 219.191 249.887 211.452 248.053 188.41C247.302 178.982 246.594 170.077 246.077 164.665C246.04 164.278 245.891 164.233 245.843 164.218C245.135 164.003 242.981 165.717 241.78 167.219C241.73 167.281 241.658 167.32 241.58 167.328C241.502 167.337 241.424 167.313 241.363 167.264C241.301 167.214 241.262 167.141 241.254 167.062C241.246 166.983 241.269 166.904 241.318 166.842C242.113 165.85 244.704 163.247 246.013 163.645C246.277 163.725 246.606 163.957 246.667 164.607C247.184 170.024 247.893 178.932 248.644 188.362C249.758 202.364 251.02 218.227 251.435 219.226C251.467 219.271 251.486 219.324 251.49 219.379C251.494 219.434 251.483 219.489 251.458 219.538C251.433 219.587 251.395 219.628 251.349 219.657C251.302 219.686 251.249 219.701 251.194 219.701Z" fill="#494949"/>
<path d="M245.315 174.595C250.234 170.613 251.864 164.415 248.956 160.751C246.049 157.088 239.704 157.346 234.785 161.328C229.867 165.31 228.237 171.508 231.144 175.172C234.052 178.836 240.396 178.578 245.315 174.595Z" fill="#1F41BB"/>
<path opacity="0.2" d="M245.315 174.595C250.234 170.613 251.864 164.415 248.956 160.751C246.049 157.088 239.704 157.346 234.785 161.328C229.867 165.31 228.237 171.508 231.144 175.172C234.052 178.836 240.396 178.578 245.315 174.595Z" fill="white"/>
<path d="M232.523 176.104C232.495 176.104 232.467 176.096 232.444 176.081C232.42 176.066 232.401 176.044 232.389 176.018C232.377 175.992 232.373 175.964 232.376 175.936C232.38 175.907 232.391 175.881 232.409 175.859L246.427 158.785C246.439 158.77 246.455 158.757 246.472 158.747C246.489 158.738 246.508 158.732 246.528 158.73C246.547 158.728 246.567 158.73 246.586 158.736C246.605 158.742 246.622 158.751 246.638 158.764C246.653 158.777 246.665 158.792 246.674 158.81C246.683 158.827 246.689 158.847 246.691 158.867C246.692 158.886 246.69 158.906 246.684 158.925C246.678 158.944 246.668 158.962 246.655 158.977L232.637 176.05C232.623 176.067 232.606 176.081 232.586 176.09C232.566 176.099 232.545 176.104 232.523 176.104Z" fill="white"/>
<path d="M254.252 216.041C254.204 216.041 254.158 216.029 254.116 216.007C254.074 215.985 254.037 215.954 254.01 215.915C253.982 215.876 253.965 215.831 253.958 215.783C253.951 215.736 253.956 215.688 253.972 215.643L259.237 200.348C259.392 199.899 259.656 199.496 260.005 199.176C260.355 198.857 260.778 198.631 261.236 198.519C261.694 198.407 262.172 198.414 262.627 198.537C263.082 198.661 263.499 198.898 263.84 199.226L266.624 201.912C266.681 201.967 266.714 202.042 266.715 202.122C266.717 202.201 266.688 202.278 266.633 202.335C266.579 202.393 266.504 202.426 266.426 202.428C266.347 202.43 266.271 202.4 266.214 202.345L263.431 199.659C263.161 199.4 262.832 199.213 262.473 199.116C262.114 199.018 261.736 199.013 261.375 199.101C261.013 199.19 260.679 199.368 260.404 199.62C260.128 199.872 259.92 200.19 259.797 200.545L254.531 215.839C254.511 215.898 254.474 215.949 254.423 215.985C254.373 216.021 254.313 216.041 254.252 216.041Z" fill="#494949"/>
<path d="M274.402 210.38C278.047 207.466 277.83 201.056 273.918 196.064C270.005 191.072 263.879 189.387 260.234 192.302C256.588 195.216 256.805 201.625 260.717 206.617C264.63 211.61 270.756 213.294 274.402 210.38Z" fill="#1F41BB"/>
<path d="M248.802 218.725C248.736 218.725 248.671 218.703 248.619 218.661C248.566 218.619 248.53 218.561 248.514 218.495L239.678 181.179C239.618 180.925 239.489 180.692 239.306 180.507C239.123 180.322 238.893 180.191 238.642 180.129C238.39 180.067 238.127 180.076 237.88 180.156C237.633 180.236 237.413 180.383 237.244 180.58L234.52 183.759C234.494 183.789 234.463 183.814 234.428 183.831C234.394 183.849 234.356 183.859 234.317 183.862C234.278 183.865 234.239 183.86 234.202 183.848C234.165 183.835 234.131 183.816 234.102 183.79C234.072 183.764 234.048 183.733 234.03 183.698C234.013 183.663 234.003 183.624 234 183.585C233.997 183.546 234.002 183.506 234.014 183.469C234.026 183.432 234.046 183.397 234.071 183.368L236.795 180.188C237.036 179.908 237.349 179.7 237.7 179.587C238.05 179.474 238.425 179.461 238.782 179.549C239.139 179.637 239.466 179.823 239.725 180.086C239.985 180.349 240.168 180.68 240.253 181.041L249.09 218.357C249.108 218.435 249.095 218.516 249.054 218.584C249.013 218.651 248.947 218.7 248.87 218.718C248.848 218.723 248.825 218.726 248.802 218.725Z" fill="#494949"/>
<path d="M245.543 192.049C246.617 185.775 243.774 180.041 239.193 179.241C234.612 178.441 230.028 182.878 228.954 189.152C227.88 195.426 230.722 201.16 235.303 201.96C239.884 202.76 244.469 198.323 245.543 192.049Z" fill="#1F41BB"/>
<path d="M251.195 219.701C251.182 219.701 251.17 219.7 251.158 219.698C251.08 219.689 251.009 219.648 250.96 219.586C250.912 219.523 250.89 219.444 250.9 219.365L256.543 173.093C256.604 172.589 256.808 172.113 257.131 171.723C257.453 171.333 257.881 171.046 258.361 170.896C258.842 170.746 259.355 170.739 259.839 170.876C260.324 171.014 260.758 171.289 261.091 171.67L267.54 179.048C267.593 179.108 267.619 179.186 267.614 179.265C267.609 179.344 267.573 179.418 267.514 179.471C267.455 179.523 267.378 179.55 267.3 179.545C267.221 179.54 267.148 179.504 267.096 179.445L260.646 172.067C260.389 171.772 260.053 171.559 259.679 171.453C259.304 171.346 258.907 171.352 258.536 171.468C258.165 171.585 257.834 171.807 257.585 172.108C257.336 172.41 257.178 172.778 257.131 173.167L251.487 219.438C251.478 219.51 251.444 219.577 251.39 219.625C251.336 219.673 251.267 219.7 251.195 219.701Z" fill="#494949"/>
<path d="M274.154 183.148C276.405 179.039 273.757 173.21 268.241 170.128C262.725 167.046 256.429 167.879 254.178 171.988C251.928 176.096 254.576 181.926 260.092 185.007C265.608 188.089 271.904 187.257 274.154 183.148Z" fill="#1F41BB"/>
<path opacity="0.2" d="M274.402 210.38C278.047 207.466 277.83 201.056 273.918 196.064C270.005 191.072 263.879 189.387 260.234 192.302C256.588 195.216 256.805 201.625 260.717 206.617C264.63 211.61 270.756 213.294 274.402 210.38Z" fill="white"/>
<path opacity="0.5" d="M245.543 192.049C246.617 185.775 243.774 180.041 239.193 179.241C234.612 178.441 230.028 182.878 228.954 189.152C227.88 195.426 230.722 201.16 235.303 201.96C239.884 202.76 244.469 198.323 245.543 192.049Z" fill="white"/>
<path opacity="0.5" d="M274.154 183.148C276.405 179.039 273.757 173.21 268.241 170.128C262.725 167.046 256.429 167.879 254.178 171.988C251.928 176.096 254.576 181.926 260.092 185.007C265.608 188.089 271.904 187.257 274.154 183.148Z" fill="white"/>
<path d="M258.412 258.962H243.977L241.585 212.317H260.804L258.412 258.962Z" fill="#292A2E"/>
<path opacity="0.3" d="M258.412 258.962H243.977L241.585 212.317H260.804L258.412 258.962Z" fill="white"/>
<path d="M274.402 210.528C274.379 210.528 274.357 210.523 274.337 210.513C274.317 210.503 274.299 210.489 274.285 210.471L260.117 192.393C260.092 192.361 260.081 192.322 260.085 192.282C260.09 192.243 260.11 192.207 260.141 192.182C260.171 192.158 260.211 192.146 260.25 192.151C260.289 192.155 260.324 192.176 260.349 192.207L274.518 210.285C274.535 210.307 274.546 210.334 274.549 210.362C274.552 210.39 274.547 210.418 274.535 210.443C274.523 210.469 274.504 210.49 274.48 210.505C274.457 210.52 274.43 210.528 274.402 210.528Z" fill="white"/>
<path d="M273.212 184.596C273.181 184.596 273.15 184.586 273.125 184.566L254.994 171.196C254.978 171.185 254.965 171.17 254.955 171.153C254.945 171.136 254.938 171.118 254.935 171.098C254.932 171.079 254.933 171.059 254.937 171.04C254.942 171.021 254.95 171.003 254.962 170.987C254.973 170.971 254.988 170.958 255.004 170.947C255.021 170.937 255.039 170.93 255.059 170.927C255.078 170.924 255.097 170.925 255.116 170.93C255.135 170.934 255.153 170.943 255.169 170.954L273.299 184.326C273.324 184.344 273.343 184.371 273.352 184.4C273.361 184.43 273.361 184.462 273.351 184.492C273.342 184.522 273.323 184.548 273.298 184.566C273.273 184.585 273.243 184.595 273.212 184.595V184.596Z" fill="white"/>
<path d="M234.567 201.765C234.554 201.765 234.541 201.764 234.528 201.76C234.49 201.75 234.458 201.725 234.438 201.691C234.419 201.656 234.413 201.615 234.423 201.577L240.195 179.736C240.2 179.717 240.209 179.699 240.22 179.683C240.232 179.667 240.247 179.653 240.264 179.643C240.281 179.633 240.3 179.627 240.319 179.624C240.339 179.621 240.358 179.623 240.377 179.628C240.396 179.633 240.414 179.642 240.43 179.654C240.445 179.666 240.458 179.681 240.468 179.698C240.478 179.716 240.484 179.735 240.486 179.754C240.489 179.774 240.487 179.794 240.482 179.813L234.71 201.654C234.702 201.686 234.683 201.714 234.657 201.734C234.631 201.754 234.599 201.765 234.567 201.765Z" fill="white"/>
</g>
<defs>
<clipPath id="clip0_303_521">
<rect width="259" height="258" fill="white" transform="translate(18 17)"/>
</clipPath>
</defs>
</svg>
